<svg width="25" height="24" viewBox="0 0 25 24" fill="none" xmlns="http://www.w3.org/2000/svg">
<path d="M12.8 4C13.8609 4 14.8783 4.42143 15.6284 5.17157C16.3786 5.92172 16.8 6.93913 16.8 8C16.8 9.06087 16.3786 10.0783 15.6284 10.8284C14.8783 11.5786 13.8609 12 12.8 12C11.7391 12 10.7217 11.5786 9.97156 10.8284C9.22142 10.0783 8.79999 9.06087 8.79999 8C8.79999 6.93913 9.22142 5.92172 9.97156 5.17157C10.7217 4.42143 11.7391 4 12.8 4ZM12.8 14C17.22 14 20.8 15.79 20.8 18V20H4.79999V18C4.79999 15.79 8.37999 14 12.8 14Z" fill="white"/>
</svg>
