<svg width="25" height="24" viewBox="0 0 25 24" fill="none" xmlns="http://www.w3.org/2000/svg">
<path d="M12.8 17C12.2696 17 11.7608 16.7893 11.3858 16.4142C11.0107 16.0391 10.8 15.5304 10.8 15C10.8 13.89 11.69 13 12.8 13C13.3304 13 13.8391 13.2107 14.2142 13.5858C14.5893 13.9609 14.8 14.4696 14.8 15C14.8 15.5304 14.5893 16.0391 14.2142 16.4142C13.8391 16.7893 13.3304 17 12.8 17ZM18.8 20V10H6.79999V20H18.8ZM18.8 8C19.3304 8 19.8391 8.21071 20.2142 8.58579C20.5893 8.96086 20.8 9.46957 20.8 10V20C20.8 20.5304 20.5893 21.0391 20.2142 21.4142C19.8391 21.7893 19.3304 22 18.8 22H6.79999C6.26955 22 5.76085 21.7893 5.38577 21.4142C5.0107 21.0391 4.79999 20.5304 4.79999 20V10C4.79999 8.89 5.68999 8 6.79999 8H7.79999V6C7.79999 4.67392 8.32677 3.40215 9.26445 2.46447C10.2021 1.52678 11.4739 1 12.8 1C13.4566 1 14.1068 1.12933 14.7134 1.3806C15.32 1.63188 15.8712 2.00017 16.3355 2.46447C16.7998 2.92876 17.1681 3.47995 17.4194 4.08658C17.6707 4.69321 17.8 5.34339 17.8 6V8H18.8ZM12.8 3C12.0043 3 11.2413 3.31607 10.6787 3.87868C10.1161 4.44129 9.79999 5.20435 9.79999 6V8H15.8V6C15.8 5.20435 15.4839 4.44129 14.9213 3.87868C14.3587 3.31607 13.5956 3 12.8 3Z" fill="white"/>
</svg>
